<svg width="50" height="50" viewBox="0 0 50 50" fill="none" xmlns="http://www.w3.org/2000/svg">
<path d="M12.5 12.5C10.0136 12.5 7.62903 13.4877 5.87087 15.2459C4.11272 17.004 3.125 19.3886 3.125 21.875V40.625H21.875V21.875C21.875 19.3886 20.8873 17.004 19.1291 15.2459C17.371 13.4877 14.9864 12.5 12.5 12.5ZM12.5 9.375H37.5C40.8152 9.375 43.9946 10.692 46.3388 13.0362C48.683 15.3804 50 18.5598 50 21.875V40.625C50 41.4538 49.6708 42.2487 49.0847 42.8347C48.4987 43.4208 47.7038 43.75 46.875 43.75H3.125C2.2962 43.75 1.50134 43.4208 0.915291 42.8347C0.32924 42.2487 0 41.4538 0 40.625V21.875C0 18.5598 1.31696 15.3804 3.66117 13.0362C6.00537 10.692 9.18479 9.375 12.5 9.375ZM20.7687 12.5C22.1003 13.6718 23.1664 15.1142 23.8961 16.7309C24.6258 18.3475 25.0021 20.1013 25 21.875V40.625H46.875V21.875C46.875 19.3886 45.8873 17.004 44.1291 15.2459C42.371 13.4877 39.9864 12.5 37.5 12.5H20.7687Z" fill="#172C66"/>
<path d="M36.8531 26.5625H28.125V23.4375H43.75C44.1644 23.4375 44.5618 23.6021 44.8549 23.8951C45.1479 24.1882 45.3125 24.5856 45.3125 25V28.125C45.3125 28.5394 45.1479 28.9368 44.8549 29.2299C44.5618 29.5229 44.1644 29.6875 43.75 29.6875H40.625C40.4197 29.6879 40.2163 29.6478 40.0265 29.5695C39.8367 29.4912 39.6641 29.3763 39.5187 29.2313L36.8531 26.5625ZM15.625 21.875C15.625 23.6 14.225 21.875 12.5 21.875C10.775 21.875 9.375 23.6 9.375 21.875C9.375 21.0462 9.70424 20.2513 10.2903 19.6653C10.8763 19.0792 11.6712 18.75 12.5 18.75C13.3288 18.75 14.1237 19.0792 14.7097 19.6653C15.2958 20.2513 15.625 21.0462 15.625 21.875Z" fill="#172C66"/>
</svg>
